<?xml version="1.0" encoding="UTF-8"?>
<svg version="1.1" xmlns="http://www.w3.org/2000/svg" width="32" height="32">
<path d="M0 0 C0.99 0.33 1.98 0.66 3 1 C1.34136495 5.32504836 -1.871041 8.09418825 -5.125 11.25 C-5.68832031 11.80429687 -6.25164063 12.35859375 -6.83203125 12.9296875 C-8.21686028 14.29104485 -9.60783204 15.64614859 -11 17 C-8.69 17.33 -6.38 17.66 -4 18 C-4 18.66 -4 19.32 -4 20 C-8.29 20 -12.58 20 -17 20 C-17 15.71 -17 11.42 -17 7 C-16.34 7 -15.68 7 -15 7 C-14.67 9.31 -14.34 11.62 -14 14 C-9.38 9.38 -4.76 4.76 0 0 Z " fill="#FFFFFF" transform="translate(23,6)"/>
</svg>
