<?xml version="1.0" encoding="UTF-8"?>
<svg xmlns="http://www.w3.org/2000/svg" xmlns:xlink="http://www.w3.org/1999/xlink" id="Layer_1" data-name="Layer 1" viewBox="0 0 1120.94 500" style="background-color:transparent;">
  <defs>
    <style>
      .cls-1 {
        fill: url(#linear-gradient);
      }

      .cls-1, .cls-2, .cls-3, .cls-4, .cls-5, .cls-6, .cls-7, .cls-8, .cls-9, .cls-10 {
        stroke-width: 0px;
      }

      .cls-2 {
        fill: url(#linear-gradient-6);
      }

      .cls-3 {
        fill: url(#linear-gradient-5);
      }

      .cls-4 {
        fill: url(#linear-gradient-2);
      }

      .cls-5 {
        fill: url(#linear-gradient-7);
      }

      .cls-6 {
        fill: url(#linear-gradient-3);
      }

      .cls-7 {
        fill: url(#linear-gradient-9);
      }

      .cls-8 {
        fill: url(#linear-gradient-8);
      }

      .cls-9 {
        fill: url(#linear-gradient-10);
      }

      .cls-10 {
        fill: url(#linear-gradient-4);
      }
    </style>
    <linearGradient id="linear-gradient" x1="828.43" y1="152.45" x2="828.43" y2="116.45" gradientTransform="translate(-574.13 55.1)" gradientUnits="userSpaceOnUse">
      <stop offset="0" stop-color="#24326c"/>
      <stop offset="1" stop-color="#0e0f17"/>
    </linearGradient>
    <linearGradient id="linear-gradient-2" x1="814.32" y1="34.83" x2="1099.01" y2="207.01" xlink:href="#linear-gradient"/>
    <linearGradient id="linear-gradient-3" x1="435.54" y1="379.34" x2="439.76" y2="379.34" gradientTransform="matrix(1,0,0,1,0,0)" xlink:href="#linear-gradient"/>
    <linearGradient id="linear-gradient-4" x1="457.71" y1="365.61" x2="461.45" y2="365.61" gradientTransform="matrix(1,0,0,1,0,0)" xlink:href="#linear-gradient"/>
    <linearGradient id="linear-gradient-5" x1="1039.32" y1="156.92" x2="899.42" y2="323.73" xlink:href="#linear-gradient"/>
    <linearGradient id="linear-gradient-6" x1="230.87" y1="246.47" x2="277.73" y2="246.47" gradientTransform="matrix(1,0,0,1,0,0)" xlink:href="#linear-gradient"/>
    <linearGradient id="linear-gradient-7" x1="535.66" y1="300.51" x2="894.89" y2="397.02" gradientTransform="matrix(1,0,0,1,0,0)" xlink:href="#linear-gradient"/>
    <linearGradient id="linear-gradient-8" x1="547.89" y1="254.99" x2="907.12" y2="351.5" gradientTransform="matrix(1,0,0,1,0,0)" xlink:href="#linear-gradient"/>
    <linearGradient id="linear-gradient-9" x1="888.96" y1="252.06" x2="864.96" y2="382.78" gradientTransform="matrix(1,0,0,1,0,0)" xlink:href="#linear-gradient"/>
    <linearGradient id="linear-gradient-10" x1="594.64" y1="130.97" x2="936.61" y2="222.84" gradientTransform="matrix(1,0,0,1,0,0)" xlink:href="#linear-gradient"/>
  </defs>
  <g>
    <path class="cls-1" d="M281.5,166.72v42.53s-42.53,0-42.53,0c-6.56,0-11.87-5.32-11.87-11.87v-42.53s42.53,0,42.53,0c6.56,0,11.87,5.32,11.87,11.87Z"/>
    <path class="cls-4" d="M517.09,250c0,11.91-1.44,23.48-4.14,34.55-16.84-61.44-73.08-106.59-139.87-106.59-2.5,0-4.99.06-7.46.19h-122.55c-.84,0-1.67-.06-2.47-.19-7.64-1.19-13.49-7.8-13.49-15.77v-57.18s144.99,0,144.99,0c53.86,0,100.85,29.36,125.85,72.95.04.06.07.13.11.19,12.11,21.18,19.03,45.71,19.03,71.85Z"/>
    <path class="cls-6" d="M435.54,380.4c1.42-.69,2.83-1.4,4.22-2.14-1.4.74-2.8,1.45-4.22,2.14Z"/>
    <path class="cls-10" d="M457.71,367.03c1.26-.93,2.51-1.87,3.74-2.84-1.23.97-2.48,1.92-3.74,2.84Z"/>
    <path class="cls-3" d="M512.94,284.55c-3.23,13.24-8.29,25.76-14.88,37.3-.04.06-.08.13-.11.2-3.09,5.39-6.52,10.56-10.26,15.49-.47.63-.95,1.25-1.43,1.86-1.93,2.47-3.94,4.86-6.02,7.19-.52.58-1.05,1.16-1.58,1.74-.52.57-1.06,1.14-1.6,1.71-.54.57-1.08,1.13-1.63,1.69-2.19,2.23-4.46,4.39-6.79,6.46-.58.52-1.17,1.03-1.76,1.55-.59.51-1.19,1.02-1.79,1.51-.6.5-1.2,1-1.81,1.49-.61.49-1.23.98-1.84,1.46-1.23.96-2.48,1.91-3.74,2.84-1.26.93-2.54,1.83-3.83,2.71-.65.44-1.3.88-1.95,1.32-.03.03-.06.04-.1.07-1.27.84-2.56,1.66-3.86,2.46-2.68,1.65-5.41,3.21-8.19,4.68-1.39.73-2.8,1.45-4.22,2.14-1.42.7-2.85,1.37-4.3,2.01-.03.01-.05.03-.08.04-1.42.63-2.85,1.25-4.29,1.83-8.08,3.3-16.53,5.89-25.26,7.7-1.53.32-3.07.61-4.62.87-3.26.57-6.57,1.03-9.91,1.37-.52.06-1.03.1-1.55.15-4.42.41-8.9.62-13.43.62h-55.88c-8.82,0-15.97-7.15-15.97-15.97v-57.18s71.85,0,71.85,0c39.76,0,71.97-32.29,71.85-72.09-.13-39.71-32.91-71.6-72.62-71.6h-5.7c2.47-.13,4.96-.19,7.46-.19,66.79,0,123.03,45.15,139.87,106.59Z"/>
    <circle class="cls-2" cx="254.3" cy="246.47" r="23.43"/>
  </g>
  <path class="cls-5" d="M540.14,350.99c0-31.87,25.39-41.46,55.28-45.41,27.08-3.38,36.67-6.21,36.67-16.08,0-9.31-5.92-15.51-19.74-15.51-14.67,0-22,6.49-23.41,18.62h-42.31c1.13-26.8,21.72-49.64,65.44-49.64,21.72,0,36.38,3.95,46.82,11.85,12.41,9.03,18.33,23.13,18.33,41.18v72.77c0,11.56,1.13,18.05,5.08,20.59v1.97h-44.57c-2.26-3.1-3.67-8.74-4.79-16.08h-.56c-8.46,12.13-21.15,19.74-42.87,19.74-28.77,0-49.36-15.51-49.36-44ZM633.22,339.71v-17.21c-5.92,3.1-14.39,5.36-23.69,7.62-17.77,3.95-25.1,8.46-25.1,19.46,0,11.56,8.46,16.08,19.74,16.08,17.21,0,29.05-10.44,29.05-25.95Z"/>
  <path class="cls-8" d="M778.39,392.73h-31.59l-57.54-144.7h28.91c2.54,0,4.68.61,6.42,1.83,1.74,1.22,2.94,2.77,3.6,4.65l27.92,77.29c1.6,4.51,2.94,8.93,4.02,13.26,1.08,4.33,2.04,8.65,2.89,12.97.85-4.32,1.81-8.65,2.89-12.97,1.08-4.32,2.47-8.74,4.16-13.26l28.63-77.29c.66-1.88,1.83-3.43,3.53-4.65,1.69-1.22,3.71-1.83,6.06-1.83h27.5l-57.4,144.7Z"/>
  <rect class="cls-7" x="859" y="248.04" width="34.83" height="144.7"/>
  <path class="cls-9" d="M891.02,227.13c-1.44.03-2.64-1.04-2.84-2.46-.36-2.6-1.08-5.12-2.14-7.49-1.63-3.63-3.81-6.79-6.47-9.38-2.65-2.6-5.85-4.72-9.5-6.31-2.69-1.15-5.54-1.88-8.5-2.17-1.45-.14-2.56-1.34-2.55-2.79h0c.01-1.53,1.26-2.77,2.79-2.77h28.16c.74,0,1.45.29,1.97.82l1.08,1.08c.52.52.82,1.23.82,1.97v26.72c0,1.51-1.21,2.75-2.72,2.79h-.09Z"/>
</svg>
