<svg xmlns="http://www.w3.org/2000/svg" version="1.1" xmlns:xlink="http://www.w3.org/1999/xlink" width="1000" height="1000"><g clip-path="url(#SvgjsClipPath1302)"><rect width="1000" height="1000" fill="#000000"></rect><g transform="matrix(15.384615384615385,0,0,15.384615384615385,100,346.1538461538462)"><svg xmlns="http://www.w3.org/2000/svg" version="1.1" xmlns:xlink="http://www.w3.org/1999/xlink" width="52" height="20"><svg xmlns="http://www.w3.org/2000/svg" width="52" height="20" fill="none"><mask id="a" width="52" height="20" x="0" y="0" maskUnits="userSpaceOnUse" style="mask-type:luminance"><path fill="#fff" d="M52 0H0v20h52V0Z"></path></mask><g fill="#fff" mask="url(#a)"><path d="M12.343 0c-2.03 0-3.978.807-5.414 2.243L2.243 6.929A7.657 7.657 0 1 0 13.07 17.757l3.242-3.241 9.444-9.445a3.657 3.657 0 0 1 6.064 1.452l2.98-2.981a7.657 7.657 0 0 0-11.873-1.3L10.244 14.93A3.657 3.657 0 1 1 5.07 9.757l4.686-4.686a3.657 3.657 0 0 1 6.064 1.452l2.98-2.98A7.651 7.651 0 0 0 12.342 0Z"></path><path d="M26.243 14.929a3.657 3.657 0 0 1-6.064-1.451l-2.98 2.98a7.657 7.657 0 0 0 11.872 1.299L41.757 5.071a3.656 3.656 0 1 1 5.172 5.172l-4.687 4.686a3.656 3.656 0 0 1-6.063-1.452l-2.98 2.981a7.657 7.657 0 0 0 11.872 1.3l4.686-4.687A7.657 7.657 0 0 0 38.93 2.243L26.243 14.929Z"></path></g></svg></svg></g></g><defs><clipPath id="SvgjsClipPath1302"><rect width="1000" height="1000" x="0" y="0" rx="500" ry="500"></rect></clipPath></defs></svg>