<svg xmlns="http://www.w3.org/2000/svg" version="1.1" xmlns:xlink="http://www.w3.org/1999/xlink" width="1000" height="1000"><g clip-path="url(#SvgjsClipPath1053)"><rect width="1000" height="1000" fill="#ffffff"></rect><g transform="matrix(1.8,0,0,1.8,50,50)"><svg xmlns="http://www.w3.org/2000/svg" version="1.1" xmlns:xlink="http://www.w3.org/1999/xlink" width="500" height="500"><svg id="Layer_1" data-name="Layer 1" xmlns="http://www.w3.org/2000/svg" xmlns:xlink="http://www.w3.org/1999/xlink" viewBox="0 0 500 500">
  <defs>
    <style>
      .cls-1 {
        fill: url(#linear-gradient);
      }

      .cls-1, .cls-2, .cls-3, .cls-4, .cls-5 {
        stroke-width: 0px;
      }

      .cls-2 {
        fill: #fbba18;
      }

      .cls-3 {
        fill: url(#linear-gradient-2);
      }

      .cls-4 {
        fill: url(#linear-gradient-3);
      }

      .cls-5 {
        fill: url(#linear-gradient-4);
      }
    </style>
    <linearGradient id="linear-gradient" x1="706.33" y1="152.45" x2="706.33" y2="116.45" gradientTransform="translate(-574.13 55.1)" gradientUnits="userSpaceOnUse">
      <stop offset="0" stop-color="#24326c"></stop>
      <stop offset="1" stop-color="#0e0f17"></stop>
    </linearGradient>
    <linearGradient id="linear-gradient-2" x1="692.22" y1="34.83" x2="976.92" y2="207.01" xlink:href="#linear-gradient"></linearGradient>
    <linearGradient id="linear-gradient-3" x1="917.23" y1="156.92" x2="777.33" y2="323.73" xlink:href="#linear-gradient"></linearGradient>
    <linearGradient id="linear-gradient-4" x1="108.78" y1="246.47" x2="155.64" y2="246.47" gradientTransform="matrix(1,0,0,1,0,0)" xlink:href="#linear-gradient"></linearGradient>
  <clipPath id="SvgjsClipPath1053"><rect width="1000" height="1000" x="0" y="0" rx="500" ry="500"></rect></clipPath></defs>
  <path class="cls-1" d="M159.41,166.72v42.53s-42.53,0-42.53,0c-6.56,0-11.87-5.32-11.87-11.87v-42.53s42.53,0,42.53,0c6.56,0,11.87,5.32,11.87,11.87Z"></path>
  <path class="cls-3" d="M394.99,250c0,11.91-1.44,23.48-4.14,34.55-16.84-61.44-73.08-106.59-139.87-106.59-2.5,0-4.99.06-7.46.19h-122.55c-.84,0-1.67-.06-2.47-.19-7.64-1.19-13.49-7.8-13.49-15.77v-57.18s144.99,0,144.99,0c53.86,0,100.85,29.36,125.85,72.95.04.06.07.13.11.19,12.11,21.18,19.03,45.71,19.03,71.85Z"></path>
  <path class="cls-2" d="M313.45,380.4c1.42-.69,2.83-1.4,4.22-2.14-1.4.74-2.8,1.45-4.22,2.14Z"></path>
  <path class="cls-2" d="M335.61,367.03c1.26-.93,2.51-1.87,3.74-2.84-1.23.97-2.48,1.92-3.74,2.84Z"></path>
  <path class="cls-4" d="M390.85,284.55c-3.23,13.24-8.29,25.76-14.88,37.3-.04.06-.08.13-.11.2-3.09,5.39-6.52,10.56-10.26,15.49-.47.63-.95,1.25-1.43,1.86-1.93,2.47-3.94,4.86-6.02,7.19-.52.58-1.05,1.16-1.58,1.74-.52.57-1.06,1.14-1.6,1.71-.54.57-1.08,1.13-1.63,1.69-2.19,2.23-4.46,4.39-6.79,6.46-.58.52-1.17,1.03-1.76,1.55-.59.51-1.19,1.02-1.79,1.51-.6.5-1.2,1-1.81,1.49-.61.49-1.23.98-1.84,1.46-1.23.96-2.48,1.91-3.74,2.84-1.26.93-2.54,1.83-3.83,2.71-.65.44-1.3.88-1.95,1.32-.03.03-.06.04-.1.07-1.27.84-2.56,1.66-3.86,2.46-2.68,1.65-5.41,3.21-8.19,4.68-1.39.73-2.8,1.45-4.22,2.14-1.42.7-2.85,1.37-4.3,2.01-.03.01-.05.03-.08.04-1.42.63-2.85,1.25-4.29,1.83-8.08,3.3-16.53,5.89-25.26,7.7-1.53.32-3.07.61-4.62.87-3.26.57-6.57,1.03-9.91,1.37-.52.06-1.03.1-1.55.15-4.42.41-8.9.62-13.43.62h-55.88c-8.82,0-15.97-7.15-15.97-15.97v-57.18s71.85,0,71.85,0c39.76,0,71.97-32.29,71.85-72.09-.13-39.71-32.91-71.6-72.62-71.6h-5.7c2.47-.13,4.96-.19,7.46-.19,66.79,0,123.03,45.15,139.87,106.59Z"></path>
  <circle class="cls-5" cx="132.21" cy="246.47" r="23.43"></circle>
</svg></svg></g></g></svg>